<svg xmlns="http://www.w3.org/2000/svg" viewBox="0 0 448 512">
  <path d="M272.5 94.2l.8-43.1c.2-8-6-17-14-17L192 32.7c-8-.2-14.6 8.5-14.7 16.5l-.8 43.1-55.3-1A28.8 28.8 0 00100 140l101.3 105.2a28.8 28.8 0 0040.8.8l105.1-101.3a28.8 28.8 0 00-19.4-49.6zM309 391.8a23.2 23.2 0 0023.5-23.4A23.8 23.8 0 00309 345a23.2 23.2 0 00-23.3 23.4 23.8 23.8 0 0023.4 23.4M136.3 345a23.2 23.2 0 00-23.4 23.4 23.8 23.8 0 0023.4 23.4 23.8 23.8 0 0023.4-23.4 23.8 23.8 0 00-23.4-23.4"/>
  <path d="M136.3 298.2a70.3 70.3 0 000 140.4h175.4a70.3 70.3 0 000-140.4H136.3m175.4 187.2H136.3c-64.8 0-117-52.2-117-117s52.2-117 117-117h175.5c64.7 0 117 52.2 117 117s-53.2 117-117 117"/>
</svg>
