<svg xmlns="http://www.w3.org/2000/svg" viewBox="0 0 448 512">
  <path d="M163.1 12.6a35 35 0 00-8.6 4.6 37 37 0 00-10.7 15.4c-.6 2-1 15.5-1 31.5v28.1h-16.5c-9 0-20.3.5-25.1 1A92.2 92.2 0 0022 165.8c-1.7 8.5-1.7 13.7-1.5 103.9l.2 95 2.7 8.4A94.9 94.9 0 0071 430.2c6.5 3.2 19.3 7.3 25.8 8.2l4.8.7V494.5l3.3 3.2 3.3 3.3h232l3.3-3.3 3.2-3.2v-55.7h2.2c3.8 0 16.4-3.6 24-6.7a97 97 0 0038.5-31.3c5.4-7.4 11.2-19.6 14-29.5l2.2-7.7V169.3l-2.2-8a92.5 92.5 0 00-78.2-68c-4.7-.6-16-1.1-25-1.1h-16.5l-.3-30c-.3-29-.4-30-2.5-34A32.8 32.8 0 00288.5 14l-5.4-2.7-57.5-.2c-53.7-.3-57.7 0-62.5 1.5zm9.7 205.2a20.4 20.4 0 015.2 31.1 20 20 0 01-35.2-13.1 20 20 0 0130-18zm122.5 0a20.5 20.5 0 013.6 32.7 20 20 0 01-33.5-14.7 20 20 0 0130-18zM164 312.2c1.4.9 5.1 3.8 8.3 6.5a81.8 81.8 0 00106.2-2c2.5-2.1 5.6-4.6 6.9-5.2 3-1.6 8-.5 10.9 2.4 6.5 6.5 2.2 14.6-13.5 25.4a102.6 102.6 0 01-85.2 15.1A111 111 0 01153 329c-3-3-3.8-4.6-3.9-7.2 0-4.5 1.9-7.9 5.5-9.7 4-2 6.2-2 9.3.2z"/>
</svg>
