<svg xmlns="http://www.w3.org/2000/svg" viewBox="0 0 448 512">
  <path d="M432 416l-225.6.2c-8.8 0-14.4 7-14.4 15.8v32c0 8.8 5.4 16 14.2 16H432a16 16 0 0016-16v-32a16 16 0 00-16-16zm3.2-128H204.8c-7 0-12.8 5.7-12.8 12.8v38.4c0 7 5.7 12.8 12.8 12.8h230.4c7 0 12.8-5.7 12.8-12.8v-38.4c0-7-5.7-12.8-12.8-12.8zm0-128H204.8c-7 0-12.8 5.7-12.8 12.8v38.4c0 7 5.7 12.8 12.8 12.8h230.4c7 0 12.8-5.7 12.8-12.8v-38.4c0-7-5.7-12.8-12.8-12.8zM432 32H16A16 16 0 000 48v32a16 16 0 0016 16h416a16 16 0 0016-16V48a16 16 0 00-16-16zM119.5 372.5l-.1-200.7c0-5.3-4.3-11.2-9.6-11.2l-44.8.2c-5.3 0-9.6 6-9.6 11.2l.1 200.8-36.8.1a19.2 19.2 0 00-13.5 32.9l69.1 68.5a19.2 19.2 0 0027.2 0L170 405a19.2 19.2 0 00-13.6-32.7z"/>
</svg>
