<svg xmlns="http://www.w3.org/2000/svg" viewBox="0 0 512 512">
  <path d="M449.2 402.9a46.3 46.3 0 01-46.4 46.4H109.3A46.3 46.3 0 0163 402.9V109.4A46.3 46.3 0 01109.4 63h293.4a46.3 46.3 0 0146.4 46.4z"/>
  <path d="M11 382.7h77.3v28.4H11zM11 326.6h77.3V355H11zM11 270.4h77.3v28.4H11zM11 214.3h77.3v28.4H11zM11 158.2h77.3v28.4H11zM11 102.1h77.3v28.4H11zM423.8 382.3H501v28.4h-77.3zM423.8 326.1H501v28.4h-77.3zM423.8 270H501v28.4h-77.3zM423.8 213.9H501v28.4h-77.3zM423.8 157.8H501v28.4h-77.3zM423.8 101.7H501V130h-77.3zM382.3 11h28.4v77.3h-28.4zM326.1 11h28.4v77.3h-28.4zM270 11h28.4v77.3h-28.3zM213.9 11h28.4v77.3h-28.4zM157.8 11h28.4v77.3h-28.4zM101.7 11H130v77.3h-28.4zM382.3 423.8h28.4V501h-28.4zM326.1 423.8h28.4V501h-28.4zM270 423.8h28.4V501h-28.3zM213.9 423.8h28.4V501h-28.4zM157.8 423.8h28.4V501h-28.4zM101.7 423.8H130V501h-28.4z"/>
</svg>
