<?xml version="1.0" encoding="UTF-8" standalone="no"?>
<svg
   xmlns:dc="http://purl.org/dc/elements/1.1/"
   xmlns:cc="http://creativecommons.org/ns#"
   xmlns:rdf="http://www.w3.org/1999/02/22-rdf-syntax-ns#"
   xmlns:svg="http://www.w3.org/2000/svg"
   xmlns="http://www.w3.org/2000/svg"
   xmlns:sodipodi="http://sodipodi.sourceforge.net/DTD/sodipodi-0.dtd"
   xmlns:inkscape="http://www.inkscape.org/namespaces/inkscape"
   viewBox="0 0 512 512"
   version="1.1"
   id="svg4"
   sodipodi:docname="chip.svg"
   inkscape:version="0.92.5 (2060ec1f9f, 2020-04-08)">
  <metadata
     id="metadata10">
    <rdf:RDF>
      <cc:Work
         rdf:about="">
        <dc:format>image/svg+xml</dc:format>
        <dc:type
           rdf:resource="http://purl.org/dc/dcmitype/StillImage" />
        <dc:title />
      </cc:Work>
    </rdf:RDF>
  </metadata>
  <defs
     id="defs8" />
  <sodipodi:namedview
     pagecolor="#ffffff"
     bordercolor="#666666"
     borderopacity="1"
     objecttolerance="10"
     gridtolerance="10"
     guidetolerance="10"
     inkscape:pageopacity="0"
     inkscape:pageshadow="2"
     inkscape:window-width="1583"
     inkscape:window-height="920"
     id="namedview6"
     showgrid="false"
     inkscape:zoom="0.4609375"
     inkscape:cx="-47.728814"
     inkscape:cy="256"
     inkscape:window-x="0"
     inkscape:window-y="0"
     inkscape:window-maximized="0"
     inkscape:current-layer="svg4" />
  <g
     transform="matrix(0.5,0,0,0.5,6,6)"
     id="g64">
    <path
       inkscape:connector-curvature="0"
       d="m 886.4,793.8 c 0,51.2 -41.5,92.7 -92.7,92.7 h -587 C 155.5,886.5 114,845 114,793.8 v -587 c 0,-51.2 41.5,-92.7 92.7,-92.7 h 587 c 51.2,0 92.7,41.5 92.7,92.7 z"
       id="path14" />
    <path
       inkscape:connector-curvature="0"
       d="m 10,753.4 h 154.5 v 56.7 H 10 Z"
       id="path16" />
    <path
       inkscape:connector-curvature="0"
       d="m 10,641.2 h 154.5 v 56.7 H 10 Z"
       id="path18" />
    <path
       inkscape:connector-curvature="0"
       d="m 10,528.9 h 154.5 v 56.7 H 10 Z"
       id="path20" />
    <path
       inkscape:connector-curvature="0"
       d="m 10,416.7 h 154.5 v 56.7 H 10 Z"
       id="path22" />
    <path
       inkscape:connector-curvature="0"
       d="m 10,304.4 h 154.5 v 56.7 H 10 Z"
       id="path24" />
    <path
       inkscape:connector-curvature="0"
       d="m 10,192.2 h 154.5 v 56.7 H 10 Z"
       id="path26" />
    <path
       inkscape:connector-curvature="0"
       d="M 835.5,752.6 H 990 v 56.7 H 835.5 Z"
       id="path28" />
    <path
       inkscape:connector-curvature="0"
       d="M 835.5,640.3 H 990 V 697 H 835.5 Z"
       id="path30" />
    <path
       inkscape:connector-curvature="0"
       d="M 835.5,528.1 H 990 v 56.7 H 835.5 Z"
       id="path32" />
    <path
       inkscape:connector-curvature="0"
       d="M 835.5,415.8 H 990 v 56.7 H 835.5 Z"
       id="path34" />
    <path
       inkscape:connector-curvature="0"
       d="M 835.5,303.6 H 990 v 56.7 H 835.5 Z"
       id="path36" />
    <path
       inkscape:connector-curvature="0"
       d="M 835.5,191.3 H 990 V 248 H 835.5 Z"
       id="path38" />
    <path
       inkscape:connector-curvature="0"
       d="m 752.6,10 h 56.7 v 154.5 h -56.7 z"
       id="path40" />
    <path
       inkscape:connector-curvature="0"
       d="M 640.3,10 H 697 v 154.5 h -56.7 z"
       id="path42" />
    <path
       inkscape:connector-curvature="0"
       d="m 528.1,10 h 56.7 v 154.5 h -56.7 z"
       id="path44" />
    <path
       inkscape:connector-curvature="0"
       d="m 415.8,10 h 56.7 v 154.5 h -56.7 z"
       id="path46" />
    <path
       inkscape:connector-curvature="0"
       d="m 303.6,10 h 56.7 v 154.5 h -56.7 z"
       id="path48" />
    <path
       inkscape:connector-curvature="0"
       d="M 191.3,10 H 248 v 154.5 h -56.7 z"
       id="path50" />
    <path
       inkscape:connector-curvature="0"
       d="m 752.6,835.5 h 56.7 V 990 h -56.7 z"
       id="path52" />
    <path
       inkscape:connector-curvature="0"
       d="M 640.3,835.5 H 697 V 990 h -56.7 z"
       id="path54" />
    <path
       inkscape:connector-curvature="0"
       d="m 528.1,835.5 h 56.7 V 990 h -56.7 z"
       id="path56" />
    <path
       inkscape:connector-curvature="0"
       d="m 415.8,835.5 h 56.7 V 990 h -56.7 z"
       id="path58" />
    <path
       inkscape:connector-curvature="0"
       d="m 303.6,835.5 h 56.7 V 990 h -56.7 z"
       id="path60" />
    <path
       inkscape:connector-curvature="0"
       d="M 191.3,835.5 H 248 V 990 h -56.7 z"
       id="path62" />
  </g>
</svg>
