<svg xmlns="http://www.w3.org/2000/svg" viewBox="0 0 448 512">
  <defs>
    <clipPath id="a" clipPathUnits="userSpaceOnUse">
      <path d="M0 612h792V0H0z"/>
    </clipPath>
  </defs>
  <g clip-path="url(#a)" transform="matrix(2.66667 0 0 -2.66667 -830.9 1073)">
    <path d="M391 375.6v.2a6.2 6.2 0 0010.8 3.5l.4.1 1.1 1 .4.6v-.7c-.1-.5-.3-1.1-.7-1.8l-.3-.5a6.2 6.2 0 00-1.8-8c.7.8 1.2 1.7 1.3 2.8a4.4 4.4 0 01-1.8 4c-.6.5-1.3.8-2 .9h-1.2c.6-.3 1-1 1-1.6a1.5 1.5 0 10-3.1.3l.1.4a4.4 4.4 0 01-1.7-3.9l-5.8 2.3zm12-11.9a70.1 70.1 0 0032.8-21.7l1.2 1.1a1.7 1.7 0 002.8 1.8c.7-.7.7-1.8 0-2.5-.5-.4-1.1-.6-1.7-.4l-1.2-1.1a61 61 0 005.5-8l2 1.3c0 .7.2 1.3.8 1.7a1.7 1.7 0 102-2.9c-.6-.4-1.3-.4-1.9 0l-2.2-1.5c1.5-2.8 2.7-5.7 3.8-8.8l3.2 1.4a1.7 1.7 0 003.3.5c.3-.9 0-1.9-1-2.3-.6-.2-1.3 0-1.7.3l-3.3-1.3c.9-3 1.6-6 2-9.2l4.2.9c.2.6.6 1 1.3 1.2a1.7 1.7 0 10-1-2.7l-4.3-.9c.4-3 .6-6 .5-9.2h4.8c.3.6.8 1 1.5 1a1.7 1.7 0 10-1.5-2.5H450a69.2 69.2 0 00-1-9.1l4.8-1a1.7 1.7 0 003-1.4c-.2-.9-1-1.5-2-1.3-.7.1-1.1.6-1.3 1.2l-4.7 1c-.7-3-1.5-6-2.6-8.8l4.4-1.8a1.7 1.7 0 002.7-2 1.7 1.7 0 00-2.3-1c-.6.3-1 1-1 1.5l-4.4 1.9a54 54 0 00-4.3-8.1l4-2.7a1.7 1.7 0 002.2-2.4c-.5-.8-1.6-1-2.4-.5-.6.4-.8 1-.7 1.7l-4 2.6c-1.7-2.5-3.6-5-5.8-7.1l3.4-3.3c.6.2 1.2 0 1.7-.4a1.7 1.7 0 10-2.8-.7l-3.3 3.3a54.6 54.6 0 00-7.1-5.9l2.6-3.8c.6 0 1.2-.2 1.6-.8a1.7 1.7 0 10-3 0l-2.5 3.8a54.8 54.8 0 00-8-4.4l1.7-4.2a1.7 1.7 0 00.5-3.3c-.9-.4-1.9 0-2.2.9-.3.6-.1 1.3.3 1.8l-1.8 4.2c-2.8-1.1-5.8-2-8.8-2.7l1-4.5a1.7 1.7 0 00-.2-3.3c-1-.2-1.9.4-2 1.4-.2.6.1 1.3.6 1.6l-.9 4.5c-3-.5-6-.8-9.1-.9v-4.5a1.7 1.7 0 00-.8-3.3c-1 0-1.7.8-1.7 1.7 0 .7.4 1.3 1 1.6v4.5a55 55 0 00-9.2 1l-1-4.6a1.7 1.7 0 10-1.4.3l.8 4.5c-3 .7-6 1.6-8.8 2.7l-1.7-4.2a1.7 1.7 0 00-2-2.7 1.7 1.7 0 00.6 3.3l1.7 4.2a54.2 54.2 0 00-8 4.3l-2.6-3.8a1.7 1.7 0 00-2.5-2.3c-.8.6-1 1.6-.4 2.4.3.6 1 .9 1.6.8l2.5 3.8a54.4 54.4 0 00-7 5.8l-3.3-3.2a1.7 1.7 0 00-2.8-1.8 1.7 1.7 0 001.7 2.9l3.3 3.2a55 55 0 00-5.8 7.1l-3.9-2.5c0-.7-.2-1.3-.7-1.7a1.7 1.7 0 00-2 2.9c.6.4 1.3.4 1.9 0l3.8 2.6c-1.7 2.6-3.1 5.3-4.3 8.1l-4.3-1.8c0-.6-.4-1.2-1-1.4a1.7 1.7 0 10.4 2.9l4.3 1.7c-1.1 2.9-2 5.8-2.6 8.8l-4.6-.9c-.2-.6-.7-1-1.3-1.2-1-.2-1.9.4-2 1.3-.2 1 .4 1.9 1.3 2 .6.2 1.3 0 1.7-.6l4.6 1c-.6 3-.9 6-.9 9h-4.7c-.3-.5-.9-.9-1.5-.9a1.7 1.7 0 000 3.5c.6 0 1.2-.4 1.5-1h4.7a55 55 0 001 9.1l-4.7 1c-.4-.5-1-.8-1.7-.7a1.7 1.7 0 00.7 3.4c.6-.1 1.1-.6 1.3-1.2l4.7-1c.6 3 1.5 6 2.7 8.8l-4.5 1.8c-.5-.4-1.2-.5-1.8-.3a1.7 1.7 0 102.4 1.8l4.4-1.9c1.3 2.8 2.8 5.5 4.4 8l-4 2.8c-.6-.4-1.3-.4-1.8 0a1.7 1.7 0 102.6 1.2l4-2.7c1.8 2.5 3.8 4.9 5.9 7l-3.5 3.5c-.6-.2-1.3 0-1.7.4a1.7 1.7 0 102.8.7l3.5-3.5c2.2 2.1 4.5 4 7 5.8l-2.7 4.1a1.7 1.7 0 101.2 2.7c.4-.6.4-1.3 0-1.8l2.8-4.2c2.6 1.7 5.3 3.1 8 4.3l-1.8 4.6a1.7 1.7 0 00-.6 3.3c1 .4 2 0 2.3-.9.2-.6.1-1.3-.3-1.8l2-4.6 2.4 1a56.2 56.2 0 0023 2.5c6.5-.8 10.1-1 11.2 1.2.6 1.4-1.3 2.2-4 3.3l-.7.3a74 74 0 00-10 4.6l-.9.5.9.6 1.1.4 1.5.3 1.8.3h6.4c2 0 4.5.1 7 .8 1.3.4 2.7 1 3.9 1.8 1.3.9 2.1 2.4 2.3 3.7l-3.2.4c-.3-.5-.8-.9-1.4-.8a1.4 1.4 0 00.3 2.8c.6-.1 1-.6 1.2-1.1l3.2-.4c.8 6.2-10.9 3.5-14.5 7.7.4.6.5 1.3.6 1.7v.8s0-.3-.3-.6a4 4 0 00-1.2-1 15 15 0 01-10.6 5.2h-1.9c-30.5-1.2-72.9-31-72.9-86.6a74.8 74.8 0 11149.6 0 64 64 0 01-67.3 63.2"/>
    <path d="M371.3 345.2a50.6 50.6 0 01-6.2-4v-47.3h6.2zM381.6 342.7v-26c0-.3-.2-.5-.4-.5h-1.5v28.3l1.3.5c.3 0 .6 0 .6-.6zm6-32c0 2.6-1.6 3.5-1.6 3.5s1.6.9 1.6 3.6v29.1c0 2-1.6 3.5-3.6 3.1a50 50 0 01-10.3-3.6v-52.5h6v18.3h2-.6c.3 0 .5-.2.5-.5V294h6zM428.9 333.4v5.5c-2 1.7-4 3.2-6.3 4.6V294h6.3zM412.3 348.5c-2 .7-4 1.3-6 1.7v-52.4c0-2.2 1.7-3.9 3.8-3.9H416.4c2.1 0 3.9 1.7 3.9 3.9v47.1c-2 1.1-4 2-6 2.9v-49.4c0-.3-.3-.5-.6-.5h-1c-.2 0-.4.2-.4.5v5.7zM352.6 294h6.3c2.1 0 3.8 1.6 3.8 3.8v14.4h-6v-13.8c0-.3-.2-.5-.5-.5h-1c-.2 0-.4.2-.4.5v-.5 24.8c0 .4 0 .6.2 1l1.2 1.8c.1.2.5.2.5-.2V316.2h6v17.6c0 3.4-2.3 3.2-3.8 1.9l-2.5-2.8-1.4-1.9a50.9 50.9 0 01-3.6-5.5c-2.2-4-2.7-5.5-2.7-9v-18.7c0-2 1.6-3.7 3.6-3.8zM402.9 250.5l4.5.9v39H403V275h-2v15.5h-4.5V250c1.5 0 3 0 4.6.3v20.6h1.9v-4zM421.8 257.3l4.6 3.1V271l2-9 4.5 4.5v24h-4.6v-16.8l-1.9 16.8h-4.6zM378.8 252.8v18.1l3.2 15.5v4h-4.6v-4l-1-11.5-1 11.5v4H371v-4L374 271v-16.1c1.6-.8 3.2-1.4 4.8-2M362.8 286.4h1.4c.3 0 .5-.2.5-.4v-10.6c0-.3-.2-.5-.5-.5h-1.4zm.2-24.6v9.1h3.9c1.3 0 2.4 1 2.4 2.4V288c0 1.4-1 2.4-2.4 2.4h-8.7v-24c1.5-1.7 3.1-3.2 4.8-4.6M415.6 280.7v-21.4c0-.6-.1-.8-.4-1l-.9-.4c-.2 0-.6-.2-.6.4V286c0 .2.2.4.5.4h1c.2 0 .4-.2.4-.4zm2 9.7h-6c-1.4 0-2.5-1-2.5-2.4v-33.5c0-1.9 1.1-2.3 2.2-2 .2 0 4.3 1.5 6.8 2.8 1.7.8 2 1.2 2 3.2V288c0 1.4-1 2.4-2.3 2.4zM391.7 250.1v36.3h3v4h-11v-4h3.1v-35.7c1.6-.3 3.2-.5 4.9-.6M397.7 294h2.4c2.1 0 3.8 1.6 3.8 3.6v14.6h-6v-13.8c0-.3-.2-.5-.5-.5h-1c-.2 0-.4.2-.4.5V346.8c0 .3.2.5.5.5h1c.2 0 .4-.2.4-.5v-30.6h6v31.2c0 2-1.7 3.7-3.8 3.7a51.7 51.7 0 01-6.5.2 4 4 0 01-3.6-4v-49.5c0-2 1.6-3.7 3.6-3.9h2.7zM432.3 335.6l-1.6 1.6-.3.3v-5.8l1.9-2.2V293.9h6.2v25l1.1-2.7h4.2c-.6 1.8-1.2 3.6-2 5.3l-.2.4a47.4 47.4 0 01-1.7 3.4l-.1.2-1.3 2c-1.8 3-3.9 5.6-6.2 8.1"/>
  </g>
</svg>
