<svg xmlns="http://www.w3.org/2000/svg" viewBox="0 0 512 512">
  <path d="M109.3 63A46.3 46.3 0 0063 109.5v293.5a46.3 46.3 0 0046.3 46.4h293.5a46.3 46.3 0 0046.4-46.4V109.4a46.3 46.3 0 00-46.4-46.3H109.3zm148.2 120.4c6.5 0 13.2.6 20 1.8 6.8 1.2 13.8 3 21 5.3V209c-7.3-3.5-14-6-20.4-7.7a72 72 0 00-18.5-2.5c-10.3 0-18.3 2-23.9 6-5.5 4-8.3 9.7-8.3 17 0 6.2 1.8 10.9 5.5 14a49.1 49.1 0 0021.2 7.7l11.4 2.3a58 58 0 0131.3 14.3 36.7 36.7 0 0110 27.2c0 13.5-4.5 23.8-13.6 30.8-9 7-22.4 10.5-40 10.5-6.6 0-13.6-.7-21.1-2.2a158 158 0 01-23.2-6.7v-19.5c7.7 4.3 15.2 7.6 22.6 9.8a76.2 76.2 0 0021.8 3.2c10.8 0 19.1-2 25-6.3a21.1 21.1 0 008.8-18.2c0-6.9-2.1-12.3-6.4-16.2-4.2-3.8-11-6.7-20.7-8.7l-11.5-2.2a61.8 61.8 0 01-30.7-13.2c-6.3-6-9.5-14.4-9.5-25 0-12.4 4.4-22.2 13-29.3a55.6 55.6 0 0136.2-10.7zm-164.3 2.5h88.5v16h-69.5v41.4h66.6v16h-66.6V310h71.2v15.9H93.2v-140zm243.2 0h42.8c15.6 0 27.5 3.6 35.5 10.7 8 7 12 17.4 12 31.1 0 13.8-4 24.3-12 31.3-8 7.1-19.9 10.6-35.5 10.6h-23.9V326h-18.9v-140zm19 15.6V254h23.8c8.8 0 15.6-2.3 20.4-6.9 4.8-4.5 7.2-11 7.2-19.5 0-8.3-2.4-14.8-7.2-19.4a28.5 28.5 0 00-20.4-6.8h-23.9z"/>
  <path d="M11 382.7h77.3v28.4H11zM11 326.6h77.3V355H11zM11 270.4h77.3v28.4H11zM11 214.3h77.3v28.4H11zM11 158.2h77.3v28.4H11zM11 102.1h77.3v28.4H11zM423.8 382.3H501v28.4h-77.3zM423.8 326.1H501v28.4h-77.3zM423.8 270H501v28.4h-77.3zM433.8 213.9H501v28.4h-67.3zM423.8 157.8H501v28.4h-77.3zM423.8 101.7H501V130h-77.3zM382.3 11h28.4v77.3h-28.4zM326.1 11h28.4v77.3h-28.4zM270 11h28.4v77.3h-28.3zM213.9 11h28.4v77.3h-28.4zM157.8 11h28.4v77.3h-28.4zM101.7 11H130v77.3h-28.4zM382.3 423.8h28.4V501h-28.4zM326.1 423.8h28.4V501h-28.4zM270 423.8h28.4V501h-28.3zM213.9 423.8h28.4V501h-28.4zM157.8 423.8h28.4V501h-28.4zM101.7 423.8H130V501h-28.4z"/>
  <text x="121.5" y="177.9" font-family="sans-serif" font-size="37.3" font-weight="400" letter-spacing="0" style="line-height:1.25" word-spacing="0"/>
</svg>
