<?xml version="1.0" encoding="UTF-8" standalone="no"?>
<svg
   xmlns:dc="http://purl.org/dc/elements/1.1/"
   xmlns:cc="http://creativecommons.org/ns#"
   xmlns:rdf="http://www.w3.org/1999/02/22-rdf-syntax-ns#"
   xmlns:svg="http://www.w3.org/2000/svg"
   xmlns="http://www.w3.org/2000/svg"
   xmlns:sodipodi="http://sodipodi.sourceforge.net/DTD/sodipodi-0.dtd"
   xmlns:inkscape="http://www.inkscape.org/namespaces/inkscape"
   viewBox="0 0 512 512"
   version="1.1"
   id="svg4"
   sodipodi:docname="esp.svg"
   inkscape:version="0.92.5 (2060ec1f9f, 2020-04-08)">
  <metadata
     id="metadata10">
    <rdf:RDF>
      <cc:Work
         rdf:about="">
        <dc:format>image/svg+xml</dc:format>
        <dc:type
           rdf:resource="http://purl.org/dc/dcmitype/StillImage" />
        <dc:title></dc:title>
      </cc:Work>
    </rdf:RDF>
  </metadata>
  <defs
     id="defs8" />
  <sodipodi:namedview
     pagecolor="#ffffff"
     bordercolor="#666666"
     borderopacity="1"
     objecttolerance="10"
     gridtolerance="10"
     guidetolerance="10"
     inkscape:pageopacity="0"
     inkscape:pageshadow="2"
     inkscape:window-width="1583"
     inkscape:window-height="920"
     id="namedview6"
     showgrid="false"
     inkscape:zoom="1.3037281"
     inkscape:cx="127.76071"
     inkscape:cy="256"
     inkscape:window-x="0"
     inkscape:window-y="0"
     inkscape:window-maximized="0"
     inkscape:current-layer="svg4" />
  <g
     transform="matrix(0.5,0,0,0.5,6,6)"
     id="g64">
    <path
       style="stroke-width:0.5"
       d="M 109.34961 63.050781 C 83.749609 63.050781 63 83.800391 63 109.40039 L 63 402.90039 C 63 428.50039 83.749609 449.25 109.34961 449.25 L 402.84961 449.25 C 428.44961 449.25 449.19922 428.50039 449.19922 402.90039 L 449.19922 109.40039 C 449.19922 83.800391 428.44961 63.050781 402.84961 63.050781 L 109.34961 63.050781 z M 257.46875 183.39062 C 264.03125 183.39062 270.71875 183.98438 277.53125 185.17188 C 284.34375 186.35938 291.3125 188.14062 298.4375 190.51562 L 298.4375 208.98438 C 291.25 205.54688 284.46875 202.98438 278.09375 201.29688 C 271.71875 199.60938 265.5625 198.76562 259.625 198.76562 C 249.3125 198.76562 241.34375 200.76562 235.71875 204.76562 C 230.15625 208.76562 227.375 214.45312 227.375 221.82812 C 227.375 228.01562 229.21875 232.70312 232.90625 235.89062 C 236.65625 239.01562 243.71875 241.54688 254.09375 243.48438 L 265.53125 245.82812 C 279.65625 248.51562 290.0625 253.26562 296.75 260.07812 C 303.5 266.82812 306.875 275.89062 306.875 287.26562 C 306.875 300.82812 302.3125 311.10938 293.1875 318.10938 C 284.125 325.10938 270.8125 328.60938 253.25 328.60938 C 246.625 328.60938 239.5625 327.85938 232.0625 326.35938 C 224.625 324.85938 216.90625 322.64062 208.90625 319.70312 L 208.90625 300.20312 C 216.59375 304.51562 224.125 307.76562 231.5 309.95312 C 238.875 312.14062 246.125 313.23438 253.25 313.23438 C 264.0625 313.23438 272.40625 311.10938 278.28125 306.85938 C 284.15625 302.60938 287.09375 296.54688 287.09375 288.67188 C 287.09375 281.79688 284.96875 276.42188 280.71875 272.54688 C 276.53125 268.67188 269.625 265.76562 260 263.82812 L 248.46875 261.57812 C 234.34375 258.76562 224.125 254.35938 217.8125 248.35938 C 211.5 242.35938 208.34375 234.01562 208.34375 223.32812 C 208.34375 210.95312 212.6875 201.20312 221.375 194.07812 C 230.125 186.95312 242.15625 183.39062 257.46875 183.39062 z M 93.21875 185.92188 L 181.71875 185.92188 L 181.71875 201.85938 L 112.15625 201.85938 L 112.15625 243.29688 L 178.8125 243.29688 L 178.8125 259.23438 L 112.15625 259.23438 L 112.15625 309.95312 L 183.40625 309.95312 L 183.40625 325.89062 L 93.21875 325.89062 L 93.21875 185.92188 z M 336.40625 185.92188 L 379.15625 185.92188 C 394.84375 185.92188 406.6875 189.48438 414.6875 196.60938 C 422.75 203.67188 426.78125 214.04688 426.78125 227.73438 C 426.78125 241.54688 422.75 251.98438 414.6875 259.04688 C 406.6875 266.10938 394.84375 269.64062 379.15625 269.64062 L 355.34375 269.64062 L 355.34375 325.89062 L 336.40625 325.89062 L 336.40625 185.92188 z M 355.34375 201.48438 L 355.34375 254.07812 L 379.15625 254.07812 C 387.96875 254.07812 394.78125 251.79688 399.59375 247.23438 C 404.40625 242.67188 406.8125 236.17188 406.8125 227.73438 C 406.8125 219.35938 404.40625 212.89062 399.59375 208.32812 C 394.78125 203.76562 387.96875 201.48438 379.15625 201.48438 L 355.34375 201.48438 z "
       transform="matrix(2,0,0,2,-12,-12)"
       id="path14" />
    <path
       inkscape:connector-curvature="0"
       d="m 10,753.4 h 154.5 v 56.7 H 10 Z"
       id="path16" />
    <path
       inkscape:connector-curvature="0"
       d="m 10,641.2 h 154.5 v 56.7 H 10 Z"
       id="path18" />
    <path
       inkscape:connector-curvature="0"
       d="m 10,528.9 h 154.5 v 56.7 H 10 Z"
       id="path20" />
    <path
       inkscape:connector-curvature="0"
       d="m 10,416.7 h 154.5 v 56.7 H 10 Z"
       id="path22" />
    <path
       inkscape:connector-curvature="0"
       d="m 10,304.4 h 154.5 v 56.7 H 10 Z"
       id="path24" />
    <path
       inkscape:connector-curvature="0"
       d="m 10,192.2 h 154.5 v 56.7 H 10 Z"
       id="path26" />
    <path
       inkscape:connector-curvature="0"
       d="M 835.5,752.6 H 990 v 56.7 H 835.5 Z"
       id="path28" />
    <path
       inkscape:connector-curvature="0"
       d="M 835.5,640.3 H 990 V 697 H 835.5 Z"
       id="path30" />
    <path
       inkscape:connector-curvature="0"
       d="M 835.5,528.1 H 990 v 56.7 H 835.5 Z"
       id="path32" />
    <path
       inkscape:connector-curvature="0"
       d="M 855.5,415.8 H 990 v 56.7 H 855.5 Z"
       id="path34"
       sodipodi:nodetypes="ccccc" />
    <path
       inkscape:connector-curvature="0"
       d="M 835.5,303.6 H 990 v 56.7 H 835.5 Z"
       id="path36" />
    <path
       inkscape:connector-curvature="0"
       d="M 835.5,191.3 H 990 V 248 H 835.5 Z"
       id="path38" />
    <path
       inkscape:connector-curvature="0"
       d="m 752.6,10 h 56.7 v 154.5 h -56.7 z"
       id="path40" />
    <path
       inkscape:connector-curvature="0"
       d="M 640.3,10 H 697 v 154.5 h -56.7 z"
       id="path42" />
    <path
       inkscape:connector-curvature="0"
       d="m 528.1,10 h 56.7 v 154.5 h -56.7 z"
       id="path44" />
    <path
       inkscape:connector-curvature="0"
       d="m 415.8,10 h 56.7 v 154.5 h -56.7 z"
       id="path46" />
    <path
       inkscape:connector-curvature="0"
       d="m 303.6,10 h 56.7 v 154.5 h -56.7 z"
       id="path48" />
    <path
       inkscape:connector-curvature="0"
       d="M 191.3,10 H 248 v 154.5 h -56.7 z"
       id="path50" />
    <path
       inkscape:connector-curvature="0"
       d="m 752.6,835.5 h 56.7 V 990 h -56.7 z"
       id="path52" />
    <path
       inkscape:connector-curvature="0"
       d="M 640.3,835.5 H 697 V 990 h -56.7 z"
       id="path54" />
    <path
       inkscape:connector-curvature="0"
       d="m 528.1,835.5 h 56.7 V 990 h -56.7 z"
       id="path56" />
    <path
       inkscape:connector-curvature="0"
       d="m 415.8,835.5 h 56.7 V 990 h -56.7 z"
       id="path58" />
    <path
       inkscape:connector-curvature="0"
       d="m 303.6,835.5 h 56.7 V 990 h -56.7 z"
       id="path60" />
    <path
       inkscape:connector-curvature="0"
       d="M 191.3,835.5 H 248 V 990 h -56.7 z"
       id="path62" />
  </g>
  <text
     xml:space="preserve"
     style="font-style:normal;font-weight:normal;font-size:37.33333206px;line-height:1.25;font-family:sans-serif;letter-spacing:0px;word-spacing:0px;fill:#000000;fill-opacity:1;stroke:none"
     x="121.49153"
     y="177.89832"
     id="text34"><tspan
       sodipodi:role="line"
       id="tspan32"
       x="121.49153"
       y="210.92957" /></text>
</svg>
