<?xml version="1.0" encoding="UTF-8" standalone="no"?>
<svg
   xmlns:dc="http://purl.org/dc/elements/1.1/"
   xmlns:cc="http://creativecommons.org/ns#"
   xmlns:rdf="http://www.w3.org/1999/02/22-rdf-syntax-ns#"
   xmlns:svg="http://www.w3.org/2000/svg"
   xmlns="http://www.w3.org/2000/svg"
   xmlns:sodipodi="http://sodipodi.sourceforge.net/DTD/sodipodi-0.dtd"
   xmlns:inkscape="http://www.inkscape.org/namespaces/inkscape"
   viewBox="0 0 448 512"
   version="1.1"
   id="svg4"
   sodipodi:docname="flash_microbit.svg"
   inkscape:version="0.92.5 (2060ec1f9f, 2020-04-08)">
  <metadata
     id="metadata10">
    <rdf:RDF>
      <cc:Work
         rdf:about="">
        <dc:format>image/svg+xml</dc:format>
        <dc:type
           rdf:resource="http://purl.org/dc/dcmitype/StillImage" />
        <dc:title />
      </cc:Work>
    </rdf:RDF>
  </metadata>
  <defs
     id="defs8" />
  <sodipodi:namedview
     pagecolor="#ffffff"
     bordercolor="#666666"
     borderopacity="1"
     objecttolerance="10"
     gridtolerance="10"
     guidetolerance="10"
     inkscape:pageopacity="0"
     inkscape:pageshadow="2"
     inkscape:window-width="1602"
     inkscape:window-height="971"
     id="namedview6"
     showgrid="false"
     inkscape:zoom="0.921875"
     inkscape:cx="-60.118765"
     inkscape:cy="299.38983"
     inkscape:window-x="181"
     inkscape:window-y="20"
     inkscape:window-maximized="0"
     inkscape:current-layer="svg4" />
  <path
     d="m 272.53418,94.196399 0.8058,-43.12167 c 0.14865,-7.95102 -6.1326,-16.91754 -14.08362,-17.066115 l -67.18827,-1.255515 c -7.95101,-0.1485 -14.56278,8.577015 -14.71137,16.528035 l -0.80579,43.12167 -55.26115,-1.03263 C 95.635865,90.890789 82.20893,121.6665 100.00956,140.1463 l 101.32335,105.18221 c 11.0355,11.45578 29.26751,11.79648 40.72211,0.76096 l 105.1822,-101.32335 c 18.47859,-17.80066 6.21084,-49.057721 -19.44309,-49.537106 z"
     id="path32"
     inkscape:connector-curvature="0"
     sodipodi:nodetypes="csssscscscsscc"
     style="stroke-width:1.20000005" />
  <g
     transform="matrix(9,0,0,9,16.55,229.84975)"
     id="g6">
    <path
       inkscape:connector-curvature="0"
       d="m 32.5,18 c 1.5,0 2.6,-1.2 2.6,-2.6 0,-1.4 -1.2,-2.6 -2.6,-2.6 -1.5,0 -2.6,1.2 -2.6,2.6 0,1.4 1.2,2.6 2.6,2.6 M 13.3,12.8 c -1.5,0 -2.6,1.2 -2.6,2.6 0,1.4 1.2,2.6 2.6,2.6 1.4,0 2.6,-1.2 2.6,-2.6 0,-1.4 -1.2,-2.6 -2.6,-2.6"
       id="path2" />
    <path
       inkscape:connector-curvature="0"
       d="m 13.3,7.6 c -4.3,0 -7.8,3.5 -7.8,7.8 0,4.3 3.5,7.8 7.8,7.8 h 19.5 c 4.3,0 7.8,-3.5 7.8,-7.8 0,-4.3 -3.5,-7.8 -7.8,-7.8 H 13.3 M 32.8,28.4 H 13.3 c -7.2,0 -13,-5.8 -13,-13 0,-7.2 5.8,-13 13,-13 h 19.5 c 7.2,0 13,5.8 13,13 0,7.2 -5.9,13 -13,13"
       id="path4" />
  </g>
</svg>
