<?xml version="1.0" encoding="UTF-8" standalone="no"?>
<svg
   xmlns:dc="http://purl.org/dc/elements/1.1/"
   xmlns:cc="http://creativecommons.org/ns#"
   xmlns:rdf="http://www.w3.org/1999/02/22-rdf-syntax-ns#"
   xmlns:svg="http://www.w3.org/2000/svg"
   xmlns="http://www.w3.org/2000/svg"
   xmlns:sodipodi="http://sodipodi.sourceforge.net/DTD/sodipodi-0.dtd"
   xmlns:inkscape="http://www.inkscape.org/namespaces/inkscape"
   viewBox="0 0 448 512"
   version="1.1"
   id="svg53"
   sodipodi:docname="lego.svg"
   inkscape:version="0.92.5 (2060ec1f9f, 2020-04-08)">
  <metadata
     id="metadata59">
    <rdf:RDF>
      <cc:Work
         rdf:about="">
        <dc:format>image/svg+xml</dc:format>
        <dc:type
           rdf:resource="http://purl.org/dc/dcmitype/StillImage" />
        <dc:title></dc:title>
      </cc:Work>
    </rdf:RDF>
  </metadata>
  <defs
     id="defs57" />
  <sodipodi:namedview
     pagecolor="#ffffff"
     bordercolor="#666666"
     borderopacity="1"
     objecttolerance="10"
     gridtolerance="10"
     guidetolerance="10"
     inkscape:pageopacity="0"
     inkscape:pageshadow="2"
     inkscape:window-width="1015"
     inkscape:window-height="802"
     id="namedview55"
     showgrid="false"
     inkscape:zoom="0.4609375"
     inkscape:cx="224"
     inkscape:cy="256"
     inkscape:window-x="903"
     inkscape:window-y="153"
     inkscape:window-maximized="0"
     inkscape:current-layer="svg53" />
  <g
     transform="matrix(0.8,0,0,0.8,19.2,51.2)"
     id="g12">
    <g
       id="g10">
      <g
         id="g8">
        <path
           inkscape:connector-curvature="0"
           d="m 170.667,298.667 v -21.333 c 0,-11.776 -9.557,-21.333 -21.333,-21.333 -11.776,0 -21.334,9.556 -21.334,21.332 v 21.333 H 85.333 V 277.333 C 85.333,265.557 75.776,256 64,256 c -11.776,0 -21.333,9.557 -21.333,21.333 v 21.333 C 19.136,298.667 0,317.803 0,341.333 v 128 c 0,11.776 9.557,21.333 21.333,21.333 H 192 c 11.776,0 21.333,-9.557 21.333,-21.333 v -128 c 0,-23.53 -19.136,-42.666 -42.666,-42.666 z"
           id="path2" />
        <path
           inkscape:connector-curvature="0"
           d="M 469.333,64 V 42.667 c 0,-11.776 -9.557,-21.333 -21.333,-21.333 -11.776,0 -21.333,9.557 -21.333,21.333 V 64 H 384 V 42.667 c 0,-11.776 -9.557,-21.333 -21.333,-21.333 -11.776,0 -21.333,9.557 -21.333,21.333 V 64 H 298.667 V 42.667 c 0,-11.776 -9.557,-21.333 -21.333,-21.333 C 265.558,21.334 256,30.891 256,42.667 V 64 H 213.333 V 42.667 c 0,-11.776 -9.557,-21.333 -21.333,-21.333 -11.776,0 -21.333,9.557 -21.333,21.333 V 64 C 147.136,64 128,83.136 128,106.667 v 106.667 c 0,11.776 9.557,21.333 21.333,21.333 H 298.666 V 320 H 512 V 213.333 106.667 C 512,83.136 492.864,64 469.333,64 Z"
           id="path4" />
        <path
           inkscape:connector-curvature="0"
           d="m 298.667,469.333 c 0,11.776 9.557,21.333 21.333,21.333 h 170.667 c 11.776,0 21.333,-9.557 21.333,-21.333 V 362.667 H 298.667 Z"
           id="path6" />
      </g>
    </g>
  </g>
</svg>
