<?xml version="1.0" encoding="UTF-8" standalone="no"?>
<svg
   xmlns:dc="http://purl.org/dc/elements/1.1/"
   xmlns:cc="http://creativecommons.org/ns#"
   xmlns:rdf="http://www.w3.org/1999/02/22-rdf-syntax-ns#"
   xmlns:svg="http://www.w3.org/2000/svg"
   xmlns="http://www.w3.org/2000/svg"
   xmlns:sodipodi="http://sodipodi.sourceforge.net/DTD/sodipodi-0.dtd"
   xmlns:inkscape="http://www.inkscape.org/namespaces/inkscape"
   viewBox="0 0 448 512"
   version="1.1"
   id="svg18"
   sodipodi:docname="lego.svg"
   inkscape:version="0.92.5 (2060ec1f9f, 2020-04-08)">
  <metadata
     id="metadata24">
    <rdf:RDF>
      <cc:Work
         rdf:about="">
        <dc:format>image/svg+xml</dc:format>
        <dc:type
           rdf:resource="http://purl.org/dc/dcmitype/StillImage" />
        <dc:title></dc:title>
      </cc:Work>
    </rdf:RDF>
  </metadata>
  <defs
     id="defs22" />
  <sodipodi:namedview
     pagecolor="#ffffff"
     bordercolor="#666666"
     borderopacity="1"
     objecttolerance="10"
     gridtolerance="10"
     guidetolerance="10"
     inkscape:pageopacity="0"
     inkscape:pageshadow="2"
     inkscape:window-width="756"
     inkscape:window-height="480"
     id="namedview20"
     showgrid="false"
     inkscape:zoom="0.4609375"
     inkscape:cx="224"
     inkscape:cy="256"
     inkscape:window-x="901"
     inkscape:window-y="356"
     inkscape:window-maximized="0"
     inkscape:current-layer="svg18" />
  <g
     transform="matrix(0.5,0,0,0.5,-25.994607,5.994891)"
     id="g8">
    <g
       transform="matrix(0.1,0,0,-0.1,0,512)"
       id="g6">
      <path
         inkscape:connector-curvature="0"
         d="m 3782.1,4987.1 c -55.5,-19.1 -134,-61.3 -172.3,-91.9 -88.1,-68.9 -187.7,-214.4 -214.5,-308.3 -11.5,-40.2 -19.2,-308.3 -19.2,-630 v -561 h -329.3 c -181.9,0 -407.8,-9.6 -503.6,-21.1 -785,-95.7 -1426.5,-683.6 -1583.5,-1449.5 -34.5,-168.5 -34.5,-273.8 -30.6,-2077.5 l 5.7,-1899.4 53.6,-168.5 c 157,-505.5 495.9,-911.4 951.6,-1143.1 130.2,-65.1 384.9,-147.4 515.1,-164.7 l 97.6,-13.4 v -553.4 -555.3 l 65.1,-65.1 65.1,-65.1 h 2320.7 2320.7 l 65.1,65.1 65.1,65.1 v 557.2 557.2 h 44 c 74.7,0 327.4,70.9 478.7,134 279.6,114.9 584,363.8 771.6,626.1 107.2,147.4 222.1,390.6 279.6,589.7 l 44,153.2 V -88.8 1854.7 l -44,160.8 C 8827.3,2750.8 8214.6,3283.1 7464,3375 c -93.8,11.5 -319.8,21.1 -501.7,21.1 H 6633 l -5.7,599.3 c -5.7,580.2 -7.6,599.3 -49.8,679.7 -67,126.4 -168.5,227.9 -287.2,285.3 l -109.2,53.6 -1148.8,3.8 c -1074.1,5.7 -1154.5,1.9 -1250.2,-30.7 z M 3975.5,883.8 c 222.1,-122.5 271.9,-428.9 103.4,-622.3 -243.2,-277.6 -702.7,-105.3 -702.7,262.3 0,321.7 319.7,513.2 599.3,360 z m 2450.9,0 c 237.4,-132.1 273.8,-471 70.9,-654.8 -258.5,-233.6 -670.2,-51.7 -670.2,294.9 0,321.6 319.7,513.1 599.3,359.9 z M 3799.3,-1004.1 c 28.7,-17.2 103.4,-76.6 166.6,-130.2 599.3,-511.2 1528,-494 2123.5,38.3 49.8,44.1 113,93.8 137.9,105.3 61.3,32.6 158.9,11.5 218.3,-47.9 130.2,-130.2 44,-291 -270,-507.4 -501.7,-348.5 -1108.6,-455.7 -1704.1,-302.5 -294.9,76.6 -691.2,304.5 -890.4,511.3 -57.4,57.4 -74.7,91.9 -76.6,143.6 -1.9,90 36.4,157 109.1,193.4 78.5,38.2 124.4,38.2 185.7,-3.9 z"
         id="path4" />
    </g>
  </g>
</svg>
