<?xml version="1.0" encoding="UTF-8" standalone="no"?>
<svg
   xmlns:dc="http://purl.org/dc/elements/1.1/"
   xmlns:cc="http://creativecommons.org/ns#"
   xmlns:rdf="http://www.w3.org/1999/02/22-rdf-syntax-ns#"
   xmlns:svg="http://www.w3.org/2000/svg"
   xmlns="http://www.w3.org/2000/svg"
   xmlns:sodipodi="http://sodipodi.sourceforge.net/DTD/sodipodi-0.dtd"
   xmlns:inkscape="http://www.inkscape.org/namespaces/inkscape"
   viewBox="0 0 448 512"
   version="1.1"
   id="svg4"
   sodipodi:docname="modes.svg"
   inkscape:version="0.92.5 (2060ec1f9f, 2020-04-08)">
  <metadata
     id="metadata10">
    <rdf:RDF>
      <cc:Work
         rdf:about="">
        <dc:format>image/svg+xml</dc:format>
        <dc:type
           rdf:resource="http://purl.org/dc/dcmitype/StillImage" />
        <dc:title></dc:title>
      </cc:Work>
    </rdf:RDF>
  </metadata>
  <defs
     id="defs8" />
  <sodipodi:namedview
     pagecolor="#ffffff"
     bordercolor="#666666"
     borderopacity="1"
     objecttolerance="10"
     gridtolerance="10"
     guidetolerance="10"
     inkscape:pageopacity="0"
     inkscape:pageshadow="2"
     inkscape:window-width="1352"
     inkscape:window-height="843"
     id="namedview6"
     showgrid="false"
     inkscape:zoom="0.65186406"
     inkscape:cx="-62.102595"
     inkscape:cy="363.38435"
     inkscape:window-x="0"
     inkscape:window-y="0"
     inkscape:window-maximized="0"
     inkscape:current-layer="svg4" />
  <path
     d="M 223.1627,474.27078 H 9.562705 c 0,0 1.67458,-53.33898 1.67458,-112.93898 v -203.8 c 0,-57.999999 48.8,-101.399999 106.799995,-111.199999 71.6,-11.8 149.39998,-11.2 213.6,0.2 90.4,16 106.8,49.4 106.8,111.199999 v 81.4 h -213.8 c 0.1914,217.5359 -1.47458,235.13898 -1.47458,235.13898 z M 345.03728,184.7318 c 22.20001,0 40.20001,-18.2 40.20001,-40.6 -0.20001,-22.6 -18,-40.8 -40.20001,-40.8 -22,0 -40.2,18.4 -40.2,40.8 0,22.4 18,40.6 40.2,40.6 z"
     id="path2"
     inkscape:connector-curvature="0"
     sodipodi:nodetypes="ccssccscccscsss"
     style="stroke-width:2" />
</svg>
