<?xml version="1.0" encoding="UTF-8" standalone="no"?>
<svg
   xmlns:dc="http://purl.org/dc/elements/1.1/"
   xmlns:cc="http://creativecommons.org/ns#"
   xmlns:rdf="http://www.w3.org/1999/02/22-rdf-syntax-ns#"
   xmlns:svg="http://www.w3.org/2000/svg"
   xmlns="http://www.w3.org/2000/svg"
   xmlns:sodipodi="http://sodipodi.sourceforge.net/DTD/sodipodi-0.dtd"
   xmlns:inkscape="http://www.inkscape.org/namespaces/inkscape"
   viewBox="0 0 448 512"
   version="1.1"
   id="svg4"
   sodipodi:docname="step_out.svg"
   inkscape:version="0.92.5 (2060ec1f9f, 2020-04-08)">
  <metadata
     id="metadata10">
    <rdf:RDF>
      <cc:Work
         rdf:about="">
        <dc:format>image/svg+xml</dc:format>
        <dc:type
           rdf:resource="http://purl.org/dc/dcmitype/StillImage" />
        <dc:title />
      </cc:Work>
    </rdf:RDF>
  </metadata>
  <defs
     id="defs8" />
  <sodipodi:namedview
     pagecolor="#ffffff"
     bordercolor="#666666"
     borderopacity="1"
     objecttolerance="10"
     gridtolerance="10"
     guidetolerance="10"
     inkscape:pageopacity="0"
     inkscape:pageshadow="2"
     inkscape:window-width="1602"
     inkscape:window-height="971"
     id="namedview6"
     showgrid="false"
     inkscape:zoom="1.3037281"
     inkscape:cx="81.715733"
     inkscape:cy="190.91525"
     inkscape:window-x="165"
     inkscape:window-y="16"
     inkscape:window-maximized="0"
     inkscape:current-layer="svg4" />
  <g
     id="g87">
    <path
       sodipodi:nodetypes="sssssssssccccccccccccccccccsssssssss"
       inkscape:connector-curvature="0"
       id="path2"
       d="m 432,416 -225.59322,0.16949 C 197.57023,416.17613 192,423.16344 192,432 v 32 c 0,8.83656 5.40073,16 14.23729,16 H 432 c 8.83656,0 16,-7.16344 16,-16 v -32 c 0,-8.83656 -7.16345,-16.00664 -16,-16 z m 3.17,-128 H 204.83 c -7.0881,-0.006 -12.83553,5.7419 -12.83,12.83 v 38.34 c -0.006,7.0881 5.7419,12.83553 12.83,12.83 h 230.34 c 7.0881,0.006 12.83553,-5.7419 12.83,-12.83 v -38.34 c 0.006,-7.0881 -5.7419,-12.83553 -12.83,-12.83 z m 0,-128 H 204.83 c -7.0881,-0.006 -12.83553,5.7419 -12.83,12.83 v 38.34 c -0.006,7.0881 5.7419,12.83553 12.83,12.83 h 230.34 c 7.0881,0.006 12.83553,-5.7419 12.83,-12.83 v -38.34 c 0.006,-7.0881 -5.7419,-12.83553 -12.83,-12.83 z M 432,32 H 16 C 7.163444,32 0,39.163444 0,48 v 32 c 0,8.836556 7.163444,16 16,16 h 416 c 8.83656,0 16,-7.163444 16,-16 V 48 c 0,-8.836556 -7.16344,-16 -16,-16 z" />
  </g>
  <path
     d="m 125.16587,416.35082 28.75246,0.14005 c 5.30154,0.0258 11.2208,-4.2438 11.24663,-9.54534 l 0.2182,-44.79947 c 0.0258,-5.30154 -5.85157,-9.62862 -11.15311,-9.65443 l -28.75246,-0.14005 0.17947,-36.84676 c 0.0833,-17.1054 -20.55551,-25.77243 -32.710281,-13.73629 l -69.181711,68.51106 c -7.534833,7.46179 -7.594045,19.61844 -0.132252,27.15248 l 68.511053,69.18171 c 12.036141,12.15397 32.759221,3.6884 32.842541,-13.417 z"
     id="path32"
     inkscape:connector-curvature="0"
     sodipodi:nodetypes="csssscscscsscc"
     style="stroke-width:0.80000001" />
</svg>
