<svg xmlns="http://www.w3.org/2000/svg" viewBox="0 0 448 512">
  <path d="M432 416l-225.6.2c-8.8 0-14.4 7-14.4 15.8v32c0 8.8 5.4 16 14.2 16H432a16 16 0 0016-16v-32a16 16 0 00-16-16zm3.2-128H204.8c-7 0-12.8 5.7-12.8 12.8v38.4c0 7 5.7 12.8 12.8 12.8h230.4c7 0 12.8-5.7 12.8-12.8v-38.4c0-7-5.7-12.8-12.8-12.8zm0-128H204.8c-7 0-12.8 5.7-12.8 12.8v38.4c0 7 5.7 12.8 12.8 12.8h230.4c7 0 12.8-5.7 12.8-12.8v-38.4c0-7-5.7-12.8-12.8-12.8zM432 32H16A16 16 0 000 48v32a16 16 0 0016 16h416a16 16 0 0016-16V48a16 16 0 00-16-16zM125.2 416.4h28.7c5.3.1 11.2-4.2 11.3-9.5l.2-44.8c0-5.3-5.9-9.6-11.2-9.6l-28.7-.1.2-36.9a19.2 19.2 0 00-32.8-13.7l-69.1 68.5a19.2 19.2 0 00-.2 27.1l68.5 69.2a19.2 19.2 0 0032.9-13.4z"/>
</svg>
